<?xml version="1.0" encoding="UTF-8"?>
<svg id="Layer_1" data-name="Layer 1" xmlns="http://www.w3.org/2000/svg" version="1.1" viewBox="0 0 622.3 229.1">
  <defs>
    <style>
      .cls-1 {
        font-size: 32.4px;
      }

      .cls-1, .cls-2 {
        font-family: Teko-Bold, Teko;
        font-weight: 700;
      }

      .cls-1, .cls-2, .cls-3, .cls-4 {
        fill: #fff;
      }

      .cls-2 {
        font-size: 40.3px;
      }

      .cls-3 {
        font-family: ArialMT, Arial;
        font-size: 70.5px;
      }

      .cls-5 {
        isolation: isolate;
      }

      .cls-4 {
        stroke-width: 0px;
      }
    </style>
  </defs>
  <g class="cls-5">
    <g>
      <path class="cls-4" d="M19.4,106.1v9.1c0,.6.3.9,1,.9h1.5v5h-3.4c-4.3,0-5.9-2-5.9-5v-10.1h-2.2v-5h2.2v-3.9h6.8v3.9h2.5v5h-2.5Z"/>
      <path class="cls-4" d="M29.6,101.1l2.5,12.2,2.2-12.2h6.9l-5,19.7c-1,3.5-3,5.6-7.6,5.6h-3.4v-5h3c1.2,0,2-.2,2.4-1.6v-.2h-2.5l-5.5-18.5h7.2-.2Z"/>
      <path class="cls-4" d="M53.8,101.1c3.8,0,5.4,2,5.4,5v10.1c0,3-1.5,5-5.4,5h-.7c-1.9,0-3.1-.8-3.5-2.2v7.4h-6.8v-25.3h6.7v2.6c.4-1.6,1.6-2.6,3.7-2.6h.7-.1ZM52.3,107c0-.6-.3-.9-1-.9h-.7c-.7,0-1.1.4-1.1,1.2v7.6c0,.8.4,1.2,1.1,1.2h.7c.7,0,1-.3,1-.9v-8.3h0Z"/>
      <path class="cls-4" d="M72.4,101.1c4.3,0,5.9,2,5.9,5v6.8h-10.3v2.7c0,.6.3.9,1,.9h1.8c.7,0,1-.4,1-1v-1.1h6.5v1.8c0,3-1.6,5-5.9,5h-4.9c-4.3,0-5.9-2-5.9-5v-10.1c0-3,1.6-5,5.9-5,0,0,4.9,0,4.9,0ZM71.8,109.2v-2.5c0-.6-.3-.9-1-.9h-1.8c-.7,0-1,.3-1,.9v2.5h3.8Z"/>
      <path class="cls-4" d="M243.1,103.3c0,3.3-1.5,4.6-3.1,5,1.9,0,3.1,1.7,3.1,4.6v9c0,.6.3.9,1,.9h1v4.6h-3.2c-4.3,0-5.9-2.4-5.9-5.4v-8.1c0-2.2-.7-3.2-2.7-3.2h-.3v-4.6h.3c2,0,2.7-1,2.7-3.3v-8.1c0-3,1.6-5.4,5.9-5.4h3.2v4.6h-1c-.7,0-1,.3-1,.9v8.5Z"/>
      <path class="cls-4" d="M12.6,191.5c0-.6-.3-.9-1-.9h-1v-4.6h3.2c4.3,0,5.9,2.4,5.9,5.4v8.1c0,2.3.7,3.3,2.7,3.3h.3v4.6h-.3c-2,0-2.7,1-2.7,3.2v8.1c0,3-1.6,5.4-5.9,5.4h-3.2v-4.6h1c.7,0,1-.3,1-.9v-9c0-2.9,1.3-4.5,3.1-4.6-1.7-.4-3.1-1.7-3.1-5v-8.5Z"/>
    </g>
    <g class="cls-5">
      <text class="cls-2" transform="translate(93 121.2)"><tspan x="0" y="0">Michael</tspan></text>
      <text class="cls-2" transform="translate(93 121.2)"><tspan x="0" y="0">Michael</tspan></text>
    </g>
    <g class="cls-5">
      <text class="cls-1" transform="translate(22.7 164.3)"><tspan x="0" y="0">specialty: &apos;UI/UX&apos; | &apos;Frontend&apos; | &apos;Mixed Reality&apos; ;</tspan></text>
      <text class="cls-1" transform="translate(22.7 164.3)"><tspan x="0" y="0">specialty: &apos;UI/UX&apos; | &apos;Frontend&apos; | &apos;Mixed Reality&apos; ;</tspan></text>
    </g>
  </g>
  <g class="cls-5">
    <text class="cls-3" transform="translate(6.3 61.5)"><tspan x="0" y="0">Mich@el Allen</tspan></text>
    <text class="cls-3" transform="translate(6.3 61.5)"><tspan x="0" y="0">Mich@el Allen</tspan></text>
  </g>
</svg>
